<svg xmlns="http://www.w3.org/2000/svg" width="426" height="168" fill="none">
  <g clip-path="url(#a)">
    <path fill="#7D7FE9" d="M125.263 34a49.813 49.813 0 0 0-28.304 8.776l27.914 39.518 12.464-46.822a50.149 50.149 0 0 0-12.074-1.471Z"/>
    <path fill="#B7B9F3" d="m141.387 36.65-14.405 45.351 41.495-23.18c-6.019-10.3-15.61-18.27-27.081-22.17h-.009Z"/>
    <path fill="#7D7FE9" d="m170.534 62.74-42.878 21.212 44.784 16.674a50.067 50.067 0 0 0 2.827-16.62c0-7.607-1.693-14.805-4.733-21.258v-.009Z"/>
    <path fill="#D1D9E0" d="M124.776 84.785 91.011 47.581c-9.689 9.113-15.743 22.064-15.743 36.415 0 27.622 22.382 50.005 49.995 50.005 19.449 0 36.291-11.099 44.562-27.294l-45.049-21.922Z"/>
  </g>
  <g clip-path="url(#b)">
    <path fill="#7D7FE9" d="M350.733 142.93c0 .591-.48 1.07-1.071 1.07H200.338a1.07 1.07 0 1 1 0-2.141h149.324c.591 0 1.071.48 1.071 1.071Z"/>
    <path fill="#C8D1DA" d="M207.808 77.995h17.572c.763 0 1.378.615 1.378 1.378v58.118c0 .763-.615 1.378-1.378 1.378h-17.572a1.376 1.376 0 0 1-1.378-1.378V79.373c0-.763.615-1.378 1.378-1.378Z"/>
    <path fill="#7D7FE9" d="M236.688 94.915h17.572c.763 0 1.378.615 1.378 1.378v41.198c0 .763-.615 1.378-1.378 1.378h-17.572a1.376 1.376 0 0 1-1.378-1.378V96.293c0-.763.615-1.378 1.378-1.378Z"/>
    <path fill="#C8D1DA" d="M265.569 59.304h17.571c.763 0 1.379.615 1.379 1.378v76.822c0 .762-.616 1.378-1.379 1.378h-17.571a1.377 1.377 0 0 1-1.379-1.378V60.67c0-.763.616-1.379 1.379-1.379v.013Z"/>
    <path fill="#7D7FE9" d="M294.448 24h17.572c.763 0 1.379.615 1.379 1.378v112.113c0 .763-.616 1.378-1.379 1.378h-17.572a1.376 1.376 0 0 1-1.378-1.378V25.378c0-.763.616-1.378 1.378-1.378Z"/>
    <path fill="#C8D1DA" d="M340.569 42.704h-17.56c-.761 0-1.378.617-1.378 1.378v93.397c0 .761.617 1.378 1.378 1.378h17.56c.761 0 1.378-.617 1.378-1.378V44.082c0-.76-.617-1.378-1.378-1.378Z"/>
  </g>
  <defs>
    <clipPath id="a">
      <path fill="#fff" d="M75.268 34h100v100h-100z"/>
    </clipPath>
    <clipPath id="b">
      <path fill="#fff" d="M199.268 24h151.465v120.001H199.268z"/>
    </clipPath>
  </defs>
</svg>
